<svg width="95" height="117" viewBox="0 0 95 117" fill="none" xmlns="http://www.w3.org/2000/svg">
<path fill-rule="evenodd" clip-rule="evenodd" d="M63.7867 56.8566C71.2949 56.8566 78.4956 53.874 83.8046 48.5649C89.1138 43.2558 92.0964 36.0551 92.0964 28.5469C92.0964 21.0387 89.1138 13.838 83.8047 8.52891C78.4956 3.21981 71.2949 0.237184 63.7867 0.237183L63.7867 28.5469L63.7867 56.8566ZM2.90358 86.865C2.90358 83.1473 3.63583 79.466 5.05853 76.0313C6.48123 72.5967 8.56651 69.4758 11.1953 66.847C13.8241 64.2182 16.945 62.1329 20.3797 60.7102C23.8143 59.2875 27.4956 58.5553 31.2133 58.5553L31.2133 86.865L2.90358 86.865ZM62.2238 0.237183C45.9634 0.237183 32.7817 13.4189 32.7817 29.6793V86.8649C49.0421 86.8649 62.2238 73.6832 62.2238 57.4228V0.237183Z" fill="url(#paint0_linear_959_21007)"/>
<path d="M29.5519 55.7337C18.9999 38.773 55.5183 20.3185 75.177 12.3397C72.2206 13.5754 75.9352 17.0151 77.5546 16.5969C27.5313 32.445 24.7946 48.0871 29.5519 55.7337Z" fill="#FD8935"/>
<path d="M82.6502 22.4875L84.4889 12.7225L88.7015 10.7516C89.0888 10.5704 89.359 10.1873 89.5311 9.79601C89.8131 9.15524 90.324 8.34445 90.6205 7.91315C90.0559 8.004 88.3311 7.94479 87.1315 7.88311C86.6967 7.86075 86.2623 7.93322 85.8605 8.10104L81.7142 9.83302L69.5962 7.49244C75.8921 10.8757 76.6754 13.5618 76.1648 14.5381C79.341 14.3291 81.7707 19.8286 82.6502 22.4875Z" fill="#5B6CC8"/>
<path fill-rule="evenodd" clip-rule="evenodd" d="M90.8478 7.77039L90.605 7.80945C90.3337 7.85312 89.7711 7.86151 89.1172 7.85031C88.4671 7.83919 87.7373 7.80903 87.1382 7.77822C86.6881 7.75508 86.238 7.83006 85.8212 8.00415L81.7042 9.72388L69.6174 7.38932L69.5476 7.58543C72.6885 9.27329 74.4438 10.7819 75.3502 11.9816C76.2602 13.1861 76.2997 14.0557 76.0728 14.4896L75.9859 14.6557L76.173 14.6434C76.9339 14.5933 77.6567 14.8843 78.3316 15.4019C79.0072 15.9199 79.6286 16.6605 80.1823 17.4958C81.2896 19.1662 82.1134 21.1962 82.5516 22.5208L82.6796 22.9078L84.5836 12.7952L88.7474 10.8472C89.1681 10.6504 89.4521 10.2401 89.6288 9.83866C89.9067 9.20698 90.4133 8.4026 90.7085 7.97303L90.8478 7.77039ZM90.4076 8.04277C90.1061 8.49832 89.6844 9.18925 89.436 9.75386C89.2683 10.135 89.012 10.491 88.6582 10.6565L84.3967 12.6502L82.622 22.0754C82.1572 20.7522 81.3777 18.918 80.3578 17.3794C79.7971 16.5336 79.1606 15.7723 78.4598 15.2348C77.8062 14.7336 77.0913 14.4232 76.3275 14.4273C76.5183 13.8659 76.361 12.9703 75.5182 11.8547C74.6461 10.7004 73.0271 9.28948 70.2362 7.7233L81.7267 9.94268L85.9024 8.19844C86.2892 8.03688 86.7078 7.96693 87.1274 7.9885C87.7278 8.01938 88.4602 8.04966 89.1136 8.06085C89.6214 8.06954 90.0881 8.06689 90.4076 8.04277Z" fill="#F2F2F2"/>
<path d="M83.8327 13.0808C83.5379 14.8077 82.8874 18.3277 82.6435 18.5923C82.9151 16.9222 83.5333 13.4818 83.8327 13.0808Z" fill="white"/>
<path d="M86.8019 8.29281C85.3384 8.95748 82.3537 10.2748 82.1233 10.2266C83.5167 9.57128 86.4032 8.26711 86.8019 8.29281Z" fill="white"/>
<path d="M88.5687 9.6077L88.9652 8.63239L87.5577 8.60007L88.5687 9.6077Z" fill="white"/>
<path d="M0.674355 105.131C0.643975 104.989 0.628784 104.714 0.628784 104.307C0.628784 103.9 0.704736 103.468 0.85664 103.011H0.993353C0.983227 103.122 0.978163 103.234 0.978163 103.346C0.978163 103.967 1.16551 104.485 1.54021 104.902C1.9149 105.309 2.41112 105.512 3.02887 105.512C3.66686 105.512 4.1884 105.319 4.59348 104.933C5.00868 104.546 5.21628 104.063 5.21628 103.483C5.21628 102.894 5.01881 102.416 4.62386 102.05L1.7073 99.3344C1.16045 98.826 0.887021 98.2107 0.887021 97.4887C0.887021 96.7667 1.125 96.1515 1.60097 95.643C2.08706 95.1244 2.74025 94.8651 3.56053 94.8651C3.94535 94.8651 4.38081 94.9159 4.8669 95.0176H5.45933V96.8938H5.32261C5.32261 96.4159 5.15552 96.0345 4.82133 95.7498C4.49727 95.465 4.077 95.3227 3.56053 95.3227C3.04406 95.3227 2.6086 95.4955 2.25416 95.8413C1.90984 96.1871 1.73768 96.6192 1.73768 97.1379C1.73768 97.6565 1.94022 98.104 2.3453 98.4802L5.3378 101.256C5.84415 101.724 6.09732 102.365 6.09732 103.178C6.09732 103.992 5.83909 104.663 5.32261 105.192C4.80614 105.711 4.11751 105.97 3.25672 105.97C2.81114 105.97 2.33517 105.899 1.82882 105.756C1.33261 105.624 0.947782 105.416 0.674355 105.131Z" fill="#5285D5"/>
<path d="M14.5524 105.604C14.7854 105.604 14.9879 105.528 15.1601 105.375C15.3322 105.212 15.4234 105.019 15.4335 104.795V101.47H9.82823V104.795C9.83835 105.019 9.92949 105.212 10.1017 105.375C10.2738 105.528 10.4763 105.604 10.7093 105.604H10.8916V105.756H7.79271V105.604H7.975C8.21804 105.604 8.42058 105.522 8.58261 105.36C8.75477 105.197 8.84591 105.004 8.85604 104.78V97.5802C8.84591 97.3565 8.75477 97.1633 8.58261 97.0006C8.41046 96.8379 8.20792 96.7565 7.975 96.7565H7.79271V96.604H10.8916V96.7565H10.7093C10.4763 96.7565 10.2738 96.8379 10.1017 97.0006C9.92949 97.1531 9.83835 97.3413 9.82823 97.565V101.012H15.4335V97.5802C15.4335 97.3565 15.3677 97.1836 15.236 97.0616C15.0233 96.8582 14.7955 96.7565 14.5524 96.7565H14.3702V96.604H17.469V96.7565H17.2867C17.0538 96.7565 16.8512 96.8328 16.6791 96.9853C16.5069 97.1379 16.4158 97.326 16.4057 97.5497V104.795C16.4158 105.019 16.4816 105.187 16.6031 105.299C16.8259 105.502 17.0538 105.604 17.2867 105.604H17.469V105.756H14.3702V105.604H14.5524Z" fill="#5285D5"/>
<path d="M28.3923 96.7565H28.1644C27.891 96.7565 27.6834 96.8633 27.5416 97.0769C27.4809 97.1684 27.4454 97.2752 27.4353 97.3972V102.538C27.4353 103.595 27.0961 104.434 26.4176 105.055C25.7492 105.665 24.8276 105.97 23.6529 105.97C22.4782 105.97 21.5516 105.665 20.8731 105.055C20.1946 104.444 19.8553 103.611 19.8553 102.553V97.4124C19.8553 97.2294 19.7844 97.0769 19.6426 96.9548C19.5009 96.8226 19.3287 96.7565 19.1262 96.7565H18.8983V96.604H21.7845V96.7565H21.5566C21.3541 96.7565 21.1819 96.8226 21.0402 96.9548C20.8984 97.0769 20.8275 97.2294 20.8275 97.4124V102.37C20.8275 103.356 21.0756 104.134 21.5718 104.704C22.0782 105.273 22.787 105.558 23.6985 105.558C24.62 105.558 25.3542 105.289 25.9011 104.75C26.4581 104.211 26.7366 103.473 26.7366 102.538V97.4124C26.7264 97.2192 26.6505 97.0616 26.5087 96.9396C26.377 96.8175 26.21 96.7565 26.0074 96.7565H25.7796V96.604H28.3923V96.7565Z" fill="#5285D5"/>
<path d="M33.8182 97.0464V104.795C33.8284 105.111 33.9803 105.344 34.274 105.497C34.4056 105.568 34.5524 105.604 34.7145 105.604H34.8816V105.756H31.7523V105.604H31.9346C32.1777 105.604 32.3853 105.522 32.5574 105.36C32.7296 105.197 32.8207 105.004 32.8309 104.78V97.0464H30.0814C29.8485 97.0464 29.6611 97.1226 29.5194 97.2752C29.3877 97.4277 29.3219 97.6108 29.3219 97.8243V98.0684H29.1548V96.3447C29.3573 96.426 29.6409 96.487 30.0055 96.5277C30.3801 96.5684 30.6586 96.5887 30.8409 96.5887H35.793C36.5221 96.5887 37.0892 96.5074 37.4943 96.3447V98.0684H37.3272V97.8243C37.3272 97.6108 37.2563 97.4277 37.1146 97.2752C36.9728 97.1226 36.7905 97.0464 36.5677 97.0464H33.8182Z" fill="#5285D5"/>
<path d="M42.8227 97.0464V104.795C42.8328 105.111 42.9847 105.344 43.2784 105.497C43.4101 105.568 43.5569 105.604 43.7189 105.604H43.886V105.756H40.7568V105.604H40.9391C41.1821 105.604 41.3897 105.522 41.5619 105.36C41.7341 105.197 41.8252 105.004 41.8353 104.78V97.0464H39.0859C38.8529 97.0464 38.6656 97.1226 38.5238 97.2752C38.3922 97.4277 38.3263 97.6108 38.3263 97.8243V98.0684H38.1592V96.3447C38.3618 96.426 38.6453 96.487 39.0099 96.5277C39.3846 96.5684 39.6631 96.5887 39.8454 96.5887H44.7974C45.5266 96.5887 46.0937 96.5074 46.4988 96.3447V98.0684H46.3317V97.8243C46.3317 97.6108 46.2608 97.4277 46.119 97.2752C45.9772 97.1226 45.7949 97.0464 45.5722 97.0464H42.8227Z" fill="#5285D5"/>
<path d="M47.7615 105.604C48.0045 105.604 48.2071 105.528 48.3691 105.375C48.5412 105.212 48.6324 105.019 48.6425 104.795V97.5802C48.6324 97.3565 48.5362 97.1633 48.3539 97.0006C48.1817 96.8379 47.9741 96.7565 47.7311 96.7565H47.5488V96.604H50.6932V96.7565H50.5109C50.2679 96.7565 50.0552 96.8379 49.8729 97.0006C49.7008 97.1633 49.6147 97.3565 49.6147 97.5802V105.283H51.9844C52.4502 105.283 52.8452 105.202 53.1692 105.039C53.4933 104.877 53.7364 104.683 53.8984 104.46C54.0705 104.236 54.2376 103.941 54.3997 103.575H54.5516L53.7161 105.756H47.5488V105.604H47.7615Z" fill="#5285D5"/>
<path d="M55.5347 105.604C55.7777 105.604 55.9803 105.528 56.1423 105.375C56.3145 105.212 56.4056 105.019 56.4157 104.795V97.5497C56.4157 97.326 56.3296 97.1379 56.1575 96.9853C55.9853 96.8328 55.7777 96.7565 55.5347 96.7565H55.322V96.604H59.7576C60.1728 96.604 60.5374 96.5735 60.8513 96.5125C61.1652 96.4515 61.3678 96.4006 61.4589 96.3599V98.0989L61.2918 98.0836V97.8548C61.2918 97.6413 61.2209 97.4582 61.0792 97.3057C60.9374 97.1531 60.7551 97.0769 60.5323 97.0769H57.3727V100.951H59.9703C60.1728 100.951 60.3247 100.89 60.426 100.768C60.5374 100.646 60.5931 100.494 60.5931 100.311V100.112H60.7602V102.248H60.5931V102.05C60.5931 101.765 60.4867 101.572 60.2741 101.47C60.1931 101.439 60.107 101.419 60.0158 101.409H57.3727V105.283H59.7576C60.2234 105.283 60.6133 105.202 60.9273 105.039C61.2513 104.877 61.4944 104.683 61.6564 104.46C61.8286 104.236 62.0007 103.941 62.1729 103.575H62.3248L61.4893 105.756H55.322V105.604H55.5347Z" fill="#5285D5"/>
<path d="M74.5819 98.0226C74.5819 98.4701 74.4907 98.887 74.3085 99.2734C73.9743 99.9954 73.3869 100.499 72.5464 100.784C72.2527 100.885 71.9995 100.936 71.7868 100.936C71.159 100.936 70.6172 100.819 70.1615 100.585V100.433C70.9007 100.595 71.5843 100.514 72.2122 100.189C72.7692 99.9039 73.1489 99.4361 73.3515 98.7853C73.4122 98.5819 73.4426 98.3887 73.4426 98.2057C73.4426 98.0226 73.4426 97.9107 73.4426 97.8701C73.4223 97.1582 73.235 96.5938 72.8806 96.1769C72.5261 95.7498 72.0299 95.5362 71.3919 95.5362H69.645V104.643C69.6551 104.907 69.7513 105.136 69.9336 105.329C70.126 105.512 70.3539 105.604 70.6172 105.604H70.8147V105.756H67.488V105.604H67.6854C67.9487 105.604 68.1715 105.512 68.3538 105.329C68.5462 105.136 68.6475 104.907 68.6576 104.643V96.1159C68.6273 95.8616 68.5209 95.6532 68.3386 95.4905C68.1563 95.3176 67.9386 95.2311 67.6854 95.2311H67.5032L67.488 95.0786H71.4527C72.4248 95.0786 73.1894 95.343 73.7464 95.8718C74.3034 96.3904 74.5819 97.1074 74.5819 98.0226Z" fill="#5285D5"/>
<path d="M78.8714 97.0769H78.0663V104.78C78.0764 105.095 78.2182 105.334 78.4916 105.497C78.6233 105.568 78.7701 105.604 78.9322 105.604H79.1296L79.1448 105.756H76.0308V105.604H76.2434C76.4764 105.604 76.6738 105.528 76.8359 105.375C77.008 105.212 77.0941 105.019 77.0941 104.795V97.5497C77.0941 97.326 77.008 97.1379 76.8359 96.9853C76.6738 96.8328 76.4764 96.7565 76.2434 96.7565H76.0308V96.604H79.8436C80.7955 96.604 81.5449 96.8226 82.0917 97.2599C82.6487 97.6972 82.9272 98.2718 82.9272 98.9836C82.9272 99.6954 82.7044 100.29 82.2588 100.768C81.8133 101.246 81.2462 101.521 80.5575 101.592C80.8816 101.734 81.2715 102.131 81.7272 102.782C81.7171 102.782 81.8892 103.006 82.2437 103.453C82.6082 103.9 82.8968 104.251 83.1095 104.506C83.3323 104.75 83.5146 104.938 83.6564 105.07C84.0311 105.426 84.3056 105.604 84.7917 105.604V105.756H84.4766C83.6766 105.756 83.0487 105.599 82.593 105.283C82.2487 105.05 81.9348 104.76 81.6512 104.414C81.5905 104.333 81.3322 103.977 80.8765 103.346C80.4309 102.706 80.1929 102.365 80.1626 102.324C79.6157 101.643 79.1043 101.302 78.6283 101.302V101.15C79.8132 101.15 80.5271 101.089 80.7702 100.967C81.1044 100.794 81.3322 100.611 81.4538 100.417C81.7069 100.011 81.8335 99.5632 81.8335 99.0751C81.8335 98.4548 81.6512 97.9768 81.2867 97.6413C80.9221 97.3057 80.4309 97.1226 79.8132 97.0921C79.5398 97.0819 79.2258 97.0769 78.8714 97.0769Z" fill="#5285D5"/>
<path d="M86.7387 97.2195C87.5115 96.818 88.3595 96.6173 89.2829 96.6173C90.2162 96.6173 91.0693 96.818 91.8421 97.2195C92.6149 97.6109 93.2271 98.1679 93.6787 98.8905C94.1404 99.6131 94.3712 100.431 94.3712 101.344C94.3712 102.258 94.1404 103.076 93.6787 103.798C93.2271 104.521 92.6149 105.083 91.8421 105.484C91.0693 105.876 90.2764 106.071 89.4635 106.071C88.6506 106.071 87.933 105.956 87.3108 105.725C86.6885 105.494 86.1466 105.173 85.6849 104.762C85.2333 104.35 84.872 103.848 84.601 103.256C84.34 102.664 84.2096 101.972 84.2096 101.179C84.2096 100.376 84.4354 99.6131 84.887 98.8905C85.3487 98.1679 85.9659 97.6109 86.7387 97.2195ZM86.4527 104.43C87.2154 105.223 88.1588 105.62 89.2829 105.62C90.4069 105.62 91.3503 105.223 92.1131 104.43C92.8758 103.628 93.2572 102.599 93.2572 101.344C93.2572 100.09 92.8758 99.0661 92.1131 98.2733C91.3503 97.4704 90.4069 97.0689 89.2829 97.0689C88.1588 97.0689 87.2154 97.4704 86.4527 98.2733C85.6999 99.0661 85.3236 100.09 85.3236 101.344C85.3236 102.599 85.6999 103.628 86.4527 104.43Z" fill="#5285D5"/>
<path d="M92.2821 99.3811L91.8247 99.2682C91.716 99.2411 91.6026 99.2385 91.4928 99.2604C91.383 99.2824 91.2797 99.3284 91.1905 99.395L90.319 100.043C90.2528 99.9504 90.1537 99.8857 90.0414 99.8613C89.929 99.837 89.8114 99.8549 89.7118 99.9114L89.672 99.9341C89.6681 99.9363 89.6647 99.9393 89.6619 99.9428C89.6592 99.9464 89.6572 99.9504 89.656 99.9547C89.6549 99.959 89.6546 99.9634 89.6552 99.9678C89.6558 99.9722 89.6572 99.9765 89.6595 99.9803L89.8864 100.364L89.8129 100.419C89.8062 100.424 89.8016 100.431 89.7999 100.439C89.7983 100.447 89.7997 100.456 89.8039 100.463L89.8678 100.571C89.862 100.568 89.8561 100.565 89.8501 100.562C89.8256 100.549 89.7999 100.54 89.7733 100.533C89.7703 100.532 89.7673 100.531 89.7642 100.53C89.6621 100.506 89.6193 100.561 89.5285 100.613C89.4376 100.665 89.3352 100.734 89.3063 100.833L89.1669 101.056C89.1657 101.06 89.1653 101.065 89.1659 101.069C89.1665 101.074 89.1679 101.078 89.1702 101.082C89.1724 101.086 89.1755 101.089 89.1791 101.092C89.1827 101.095 89.1868 101.097 89.1912 101.098L89.1916 101.098L89.4829 101.134C89.5849 101.159 89.7186 101.183 89.8094 101.132C89.9003 101.08 90.013 101.1 90.0421 101.001C90.0438 100.995 90.0453 100.989 90.0468 100.983C90.0524 100.96 90.0558 100.937 90.057 100.913C90.0573 100.906 90.0574 100.899 90.0573 100.892L90.1212 101C90.1254 101.008 90.1321 101.013 90.1401 101.015C90.1481 101.018 90.1567 101.018 90.1645 101.015L90.2493 100.979L90.4761 101.363C90.4784 101.367 90.4814 101.37 90.485 101.373C90.4886 101.376 90.4927 101.378 90.4971 101.379C90.5014 101.38 90.506 101.38 90.5104 101.38C90.5149 101.379 90.5192 101.378 90.5231 101.375L90.563 101.353C90.6624 101.296 90.7365 101.204 90.7707 101.096C90.8049 100.988 90.7968 100.872 90.7479 100.769L91.7529 100.347C91.856 100.304 91.9479 100.239 92.0218 100.156C92.0957 100.073 92.1497 99.9753 92.1796 99.8693L92.3069 99.423C92.3081 99.4186 92.3085 99.4141 92.3079 99.4096C92.3073 99.4051 92.3058 99.4008 92.3035 99.3969C92.3012 99.393 92.2981 99.3896 92.2945 99.3869C92.2908 99.3842 92.2866 99.3822 92.2821 99.3811ZM89.7363 99.9756L89.7463 99.9699C89.8314 99.9216 89.9319 99.9065 90.0278 99.9276C90.1237 99.9487 90.2081 100.004 90.2641 100.084L89.9417 100.323L89.7363 99.9756ZM89.763 100.648C89.7828 100.637 89.8047 100.629 89.8273 100.626C89.8768 100.653 89.9178 100.693 89.9462 100.741C89.9746 100.789 89.9892 100.844 89.9886 100.899C89.973 100.919 89.953 100.936 89.9302 100.947C89.9074 100.959 89.8822 100.966 89.8565 100.966C89.8308 100.967 89.8052 100.963 89.7816 100.953C89.758 100.943 89.7369 100.928 89.7199 100.909C89.7029 100.89 89.6904 100.867 89.6832 100.843C89.6761 100.819 89.6746 100.793 89.6787 100.768C89.6828 100.743 89.6925 100.72 89.7071 100.699C89.7217 100.678 89.7408 100.661 89.763 100.648ZM89.4994 101.069L89.2426 101.041L89.3724 100.852C89.3954 100.773 89.4827 100.721 89.5532 100.677C89.6237 100.634 89.6431 100.578 89.7252 100.591C89.6707 100.624 89.6312 100.676 89.6154 100.736C89.5995 100.797 89.6086 100.861 89.6405 100.915C89.6725 100.969 89.7248 101.009 89.7862 101.026C89.8476 101.042 89.9131 101.034 89.9687 101.004C89.9402 101.081 89.8381 101.04 89.7648 101.079C89.6915 101.117 89.5802 101.088 89.4994 101.069ZM90.1654 100.941L89.8787 100.455L90.0256 100.346L90.3349 100.869L90.1654 100.941ZM90.5284 101.294L90.5184 101.3L90.313 100.952L90.6846 100.796C90.727 100.883 90.7344 100.983 90.7055 101.075C90.6765 101.167 90.6133 101.246 90.5284 101.294ZM92.1134 99.851C92.0868 99.945 92.0395 100.032 91.9749 100.106C91.9103 100.18 91.8299 100.239 91.7394 100.279C91.6731 100.07 91.5749 99.871 91.4481 99.6902C91.4456 99.6864 91.4423 99.6832 91.4385 99.6806C91.4347 99.6781 91.4305 99.6764 91.4259 99.6755C91.4214 99.6746 91.4168 99.6746 91.4123 99.6755C91.4078 99.6765 91.4036 99.6782 91.3998 99.6808C91.396 99.6834 91.3928 99.6866 91.3903 99.6904C91.3878 99.6942 91.3862 99.6985 91.3854 99.7029C91.3846 99.7074 91.3848 99.7119 91.3858 99.7163C91.3869 99.7207 91.3888 99.7249 91.3915 99.7285C91.5157 99.9057 91.6116 100.1 91.6758 100.306L90.3986 100.843L90.0808 100.305L91.1885 99.4812C91.2298 99.5246 91.2697 99.5698 91.3071 99.6162C91.3128 99.6232 91.321 99.6277 91.3301 99.6287C91.3391 99.6297 91.3482 99.6272 91.3553 99.6216C91.3624 99.6161 91.367 99.608 91.3681 99.5991C91.3692 99.5903 91.3666 99.5813 91.361 99.5743C91.324 99.5283 91.2847 99.4835 91.2438 99.4404C91.3241 99.383 91.4163 99.3437 91.5138 99.3253C91.6112 99.3069 91.7117 99.3097 91.8079 99.3337L92.2311 99.4382L92.1134 99.851Z" fill="#F2F2F2"/>
<path d="M91.1629 99.8243C91.1448 99.8372 91.1294 99.8535 91.1177 99.8722C91.1059 99.891 91.098 99.9119 91.0944 99.9336C91.0908 99.9554 91.0916 99.9777 91.0967 99.9991C91.1018 100.021 91.1111 100.041 91.1241 100.059C91.1504 100.095 91.1901 100.119 91.2345 100.126C91.2565 100.13 91.279 100.129 91.3007 100.124C91.3224 100.119 91.3429 100.109 91.361 100.097C91.3975 100.07 91.4221 100.031 91.4294 99.9872C91.4367 99.9432 91.426 99.8982 91.3998 99.8621C91.3735 99.826 91.3338 99.8018 91.2894 99.7947C91.2449 99.7876 91.1994 99.7982 91.1629 99.8243L91.1629 99.8243ZM91.3208 100.041C91.3046 100.053 91.2853 100.059 91.2654 100.06C91.2454 100.061 91.2257 100.056 91.2087 100.045C91.1918 100.035 91.1783 100.02 91.1701 100.002C91.1618 99.984 91.1591 99.964 91.1623 99.9445C91.1656 99.925 91.1746 99.9069 91.1882 99.8924C91.2018 99.8779 91.2195 99.8678 91.2389 99.8632C91.2583 99.8587 91.2787 99.8599 91.2974 99.8668C91.3161 99.8737 91.3323 99.8859 91.3439 99.902C91.3595 99.9235 91.3658 99.9502 91.3615 99.9763C91.3571 100.002 91.3425 100.026 91.3208 100.041Z" fill="#F2F2F2"/>
<path d="M90.9251 99.9581C90.8975 99.9538 90.8693 99.9562 90.8429 99.9651C90.8166 99.9741 90.7928 99.9894 90.7738 100.01C90.7547 100.03 90.741 100.054 90.7338 100.081C90.7267 100.108 90.7262 100.136 90.7326 100.163C90.739 100.189 90.7519 100.214 90.7703 100.235C90.7887 100.256 90.812 100.271 90.8381 100.281C90.8642 100.291 90.8923 100.294 90.92 100.29C90.9476 100.287 90.974 100.276 90.9966 100.26C91.0239 100.241 91.0448 100.214 91.0566 100.183C91.0683 100.151 91.0706 100.118 91.0629 100.085C91.0552 100.053 91.038 100.024 91.0135 100.001C90.989 99.9783 90.9582 99.9634 90.9251 99.9581L90.9251 99.9581ZM90.9565 100.205C90.9403 100.216 90.921 100.223 90.901 100.224C90.8811 100.224 90.8614 100.219 90.8444 100.209C90.8274 100.199 90.814 100.183 90.8057 100.165C90.7974 100.147 90.7948 100.127 90.798 100.108C90.8012 100.088 90.8102 100.07 90.8239 100.056C90.8375 100.041 90.8551 100.031 90.8746 100.027C90.894 100.022 90.9144 100.023 90.9331 100.03C90.9518 100.037 90.9679 100.049 90.9796 100.065C90.9952 100.087 91.0015 100.114 90.9971 100.14C90.9928 100.166 90.9782 100.189 90.9565 100.205Z" fill="#F2F2F2"/>
<path d="M90.4318 100.184C90.3955 100.21 90.3712 100.249 90.3641 100.293C90.357 100.337 90.3676 100.382 90.3938 100.418C90.42 100.454 90.4595 100.478 90.5037 100.485C90.5479 100.492 90.5933 100.482 90.6299 100.456C90.6481 100.443 90.6636 100.427 90.6755 100.408C90.6874 100.389 90.6954 100.368 90.699 100.347C90.7027 100.325 90.702 100.302 90.6969 100.281C90.6919 100.259 90.6825 100.239 90.6695 100.221C90.6564 100.203 90.6399 100.188 90.6209 100.176C90.6018 100.165 90.5807 100.157 90.5586 100.154C90.5365 100.15 90.5139 100.151 90.4922 100.156C90.4704 100.161 90.4499 100.171 90.4318 100.184ZM90.5898 100.401C90.5708 100.414 90.5477 100.421 90.5244 100.42C90.5011 100.418 90.479 100.409 90.462 100.393C90.4449 100.377 90.4339 100.356 90.4309 100.333C90.4278 100.31 90.4328 100.287 90.4451 100.267C90.4575 100.248 90.4763 100.233 90.4984 100.226C90.5205 100.218 90.5445 100.218 90.5663 100.226C90.5882 100.234 90.6065 100.25 90.6182 100.27C90.6299 100.29 90.6343 100.313 90.6305 100.336C90.6261 100.362 90.6115 100.385 90.5897 100.401L90.5898 100.401Z" fill="#F2F2F2"/>
<path d="M91.7134 99.3625C91.6026 99.349 91.4901 99.3679 91.3898 99.4167C91.3857 99.4186 91.3821 99.4214 91.3791 99.4247C91.376 99.4281 91.3737 99.432 91.3722 99.4362C91.3707 99.4405 91.3701 99.445 91.3704 99.4495C91.3707 99.4539 91.3718 99.4583 91.3738 99.4623C91.3758 99.4664 91.3786 99.47 91.382 99.4729C91.3854 99.4759 91.3894 99.4781 91.3937 99.4796C91.398 99.481 91.4026 99.4816 91.4071 99.4813C91.4116 99.4809 91.416 99.4797 91.4201 99.4777C91.5084 99.4348 91.6075 99.4182 91.7051 99.4301C91.7096 99.4307 91.7141 99.4303 91.7185 99.4291C91.7229 99.428 91.727 99.4259 91.7306 99.4232C91.7342 99.4204 91.7371 99.417 91.7394 99.4131C91.7416 99.4092 91.7431 99.4049 91.7436 99.4004C91.7442 99.3959 91.7438 99.3914 91.7426 99.3871C91.7414 99.3828 91.7393 99.3788 91.7365 99.3752C91.7337 99.3717 91.7302 99.3688 91.7263 99.3666C91.7223 99.3644 91.718 99.363 91.7134 99.3625Z" fill="#F2F2F2"/>
<path d="M91.8308 99.4497L91.8313 99.4498L91.8753 99.4563C91.8843 99.4576 91.8935 99.4553 91.9008 99.4499C91.9082 99.4444 91.9131 99.4363 91.9144 99.4273C91.9158 99.4183 91.9135 99.4092 91.9081 99.4019C91.9027 99.3946 91.8946 99.3897 91.8856 99.3884L91.8416 99.3819C91.8371 99.3813 91.8326 99.3815 91.8282 99.3825C91.8238 99.3836 91.8196 99.3855 91.816 99.3882C91.8123 99.3908 91.8092 99.3942 91.8069 99.398C91.8045 99.4019 91.8029 99.4062 91.8022 99.4106C91.8015 99.4151 91.8017 99.4196 91.8027 99.424C91.8038 99.4284 91.8057 99.4325 91.8084 99.4361C91.811 99.4398 91.8144 99.4428 91.8182 99.4452C91.8221 99.4475 91.8264 99.4491 91.8308 99.4497Z" fill="#F2F2F2"/>
<path d="M85.4996 105.573C82.9996 106.073 86.465 102.356 88.5726 101.073L88.9106 101.645C83.9188 104.34 84.1289 105.847 85.4996 105.573Z" fill="#FFB800"/>
<defs>
<linearGradient id="paint0_linear_959_21007" x1="51.4634" y1="-4.57547" x2="51.4634" y2="91.6776" gradientUnits="userSpaceOnUse">
<stop stop-color="#119E58"/>
<stop offset="1" stop-color="#395EAD"/>
</linearGradient>
</defs>
</svg>
